<?xml version="1.0" standalone="no"?>
<!DOCTYPE svg PUBLIC "-//W3C//DTD SVG 20010904//EN"
 "http://www.w3.org/TR/2001/REC-SVG-20010904/DTD/svg10.dtd">
<svg version="1.0" xmlns="http://www.w3.org/2000/svg"
 width="1765.000000pt" height="412.000000pt" viewBox="0 0 1765.000000 412.000000"
 preserveAspectRatio="xMidYMid meet">

<g transform="translate(0.000000,412.000000) scale(0.100000,-0.100000)"
fill="#000000" stroke="none">
<path d="M269 4048 c-12 -40 -26 -75 -30 -78 -4 -3 -17 -54 -28 -113 -20 -100
-21 -143 -21 -598 0 -457 1 -498 21 -592 11 -56 24 -104 28 -107 5 -3 11 -22
15 -42 10 -52 76 -261 82 -256 2 3 -2 75 -11 161 -27 287 -16 910 21 1161 18
125 76 382 103 460 12 33 21 63 21 68 0 4 -40 8 -90 8 l-89 0 -22 -72z"/>
<path d="M577 4113 c-20 -35 -102 -341 -94 -349 1 -2 13 25 26 59 12 34 44
111 69 171 26 60 49 113 50 118 4 10 -45 11 -51 1z"/>
<path d="M740 4094 c-6 -14 -10 -29 -10 -34 0 -5 -6 -15 -14 -23 -23 -23 -76
-191 -131 -417 -100 -408 -120 -837 -59 -1260 34 -235 138 -594 183 -630 3 -3
30 -54 60 -115 120 -247 289 -474 433 -584 219 -168 290 -219 372 -271 53 -33
100 -60 105 -60 5 0 11 -6 14 -13 3 -8 83 -52 179 -100 314 -156 593 -236 978
-281 452 -53 941 -9 1354 120 222 70 555 215 591 257 11 13 202 137 211 137 8
0 118 84 214 164 111 92 347 328 436 436 78 94 99 124 202 285 39 61 77 117
85 126 27 30 88 147 153 291 58 130 84 172 84 136 0 -21 -74 -255 -105 -333
-34 -84 -114 -248 -126 -255 -4 -3 -18 -28 -30 -55 -30 -69 -126 -220 -212
-333 -40 -52 -87 -115 -104 -141 -41 -57 -146 -165 -288 -294 -60 -55 -137
-124 -170 -154 -60 -55 -267 -196 -373 -255 -31 -17 -95 -54 -142 -83 -47 -28
-114 -66 -150 -84 -36 -19 -67 -37 -70 -41 -3 -4 -23 -17 -45 -29 -22 -11 -33
-21 -24 -21 21 0 143 41 149 50 3 5 40 20 83 35 231 79 610 296 750 428 26 25
75 67 109 94 80 61 260 236 316 305 24 29 77 96 119 148 41 52 78 97 82 100
21 16 171 241 171 256 0 4 20 41 43 83 75 133 152 310 208 476 30 88 57 162
60 165 10 8 47 177 58 265 34 267 19 606 -41 913 -6 34 -15 62 -18 62 -4 0
-12 25 -19 56 -19 82 -114 371 -146 443 l-28 61 -688 0 -688 0 -6 -22 c-20
-66 -104 -250 -136 -299 -86 -128 -228 -228 -389 -275 -97 -28 -298 -26 -404
4 -97 28 -203 80 -275 135 -29 23 -61 47 -70 52 -70 44 -169 204 -216 353
l-17 52 -1299 0 -1299 0 -10 -26z"/>
<path d="M3510 4110 c0 -15 40 -92 57 -110 7 -8 36 -45 64 -83 27 -37 73 -85
100 -107 199 -157 534 -187 725 -65 30 19 58 35 62 35 10 0 102 93 102 103 0
4 15 28 34 54 30 43 96 164 96 178 0 3 -279 5 -620 5 -423 0 -620 -3 -620 -10z"/>
<path d="M6440 4109 c0 -6 15 -50 34 -98 180 -450 233 -704 243 -1156 4 -201
2 -291 -11 -396 -19 -172 -68 -418 -107 -551 -39 -131 -148 -425 -163 -441 -7
-7 -54 -93 -105 -191 -145 -281 -268 -448 -503 -686 -118 -120 -342 -310 -366
-310 -5 0 -25 -16 -45 -35 -38 -37 -185 -136 -284 -192 -35 -19 -63 -37 -63
-39 0 -2 432 -4 960 -4 l960 0 0 2055 0 2055 -275 0 c-197 0 -275 -3 -275 -11z"/>
<path d="M7380 2680 l0 -1290 165 0 165 0 0 565 0 565 445 0 445 0 0 160 0
160 -445 0 -445 0 0 405 0 405 445 0 445 0 0 160 0 160 -610 0 -610 0 0 -1290z"/>
<path d="M9050 2680 l0 -1290 675 0 c593 0 675 2 675 15 0 8 5 15 10 15 17 0
13 258 -4 276 -12 11 -100 14 -523 16 l-508 3 -3 403 -2 402 512 0 c499 0 567
4 528 30 -10 6 -11 10 -2 10 9 0 12 26 12 94 0 66 -4 96 -12 99 -10 4 -10 6 0
6 6 1 12 7 12 15 0 8 -6 17 -12 20 -10 5 -10 7 0 12 6 3 12 12 12 20 0 12 -81
14 -522 16 l-523 3 -3 403 -2 402 509 0 c280 0 516 3 525 6 14 5 16 28 16 146
0 107 -3 143 -14 154 -12 12 -117 14 -685 14 l-671 0 0 -1290z"/>
<path d="M10850 2680 l0 -1290 163 2 162 3 3 408 2 407 153 0 c140 0 154 -2
170 -20 9 -11 17 -25 17 -30 0 -6 6 -13 14 -16 8 -3 17 -16 20 -30 4 -13 10
-24 15 -24 5 0 12 -13 16 -30 4 -16 11 -30 16 -30 5 0 11 -11 15 -25 3 -14 10
-25 15 -25 5 0 9 -7 9 -15 0 -9 6 -18 14 -21 8 -3 17 -16 20 -30 4 -13 10 -24
15 -24 5 0 12 -13 16 -29 3 -16 13 -32 21 -35 8 -3 14 -12 14 -21 0 -8 4 -15
10 -15 5 0 12 -11 16 -25 3 -14 10 -25 15 -25 5 0 9 -6 9 -14 0 -8 6 -21 14
-28 7 -8 17 -25 21 -38 4 -13 18 -33 30 -45 13 -11 27 -33 30 -47 4 -15 13
-29 21 -32 8 -3 14 -12 14 -21 0 -8 5 -15 10 -15 6 0 10 -9 10 -20 0 -11 7
-23 15 -26 8 -4 15 -12 15 -19 0 -8 7 -21 16 -29 13 -13 46 -16 201 -16 l185
0 -7 28 c-3 15 -13 31 -21 35 -8 4 -14 16 -14 26 0 11 -7 21 -15 25 -8 3 -15
12 -15 21 0 8 -4 15 -10 15 -5 0 -12 11 -16 25 -3 14 -10 25 -15 25 -5 0 -9 7
-9 15 0 9 -6 18 -14 21 -8 3 -17 16 -20 30 -4 13 -11 24 -16 24 -6 0 -10 7
-10 15 0 9 -7 18 -15 21 -8 4 -15 12 -15 19 0 8 -6 20 -14 27 -7 8 -17 24 -20
36 -4 12 -12 22 -17 22 -5 0 -9 7 -9 15 0 9 -6 18 -14 21 -8 3 -17 17 -21 32
-3 14 -17 36 -30 48 -13 12 -27 34 -31 48 -3 14 -10 26 -14 26 -5 0 -12 10
-16 22 -3 12 -13 28 -20 36 -8 7 -14 19 -14 27 0 7 -7 15 -15 19 -8 3 -15 12
-15 21 0 8 -4 15 -10 15 -5 0 -12 11 -16 24 -3 14 -12 27 -20 30 -8 3 -14 12
-14 21 0 8 -4 15 -10 15 -5 0 -10 5 -10 11 0 16 25 37 53 44 14 4 28 13 31 21
3 8 10 14 16 14 6 0 26 16 44 35 19 19 37 35 41 35 9 0 115 105 115 115 0 3
14 20 30 37 17 16 30 35 30 43 0 7 7 15 15 19 8 3 15 15 15 26 0 11 4 20 9 20
5 0 12 14 16 30 4 17 10 30 15 30 5 0 11 14 15 30 4 17 10 30 15 30 5 0 12 21
16 48 4 26 12 50 18 54 16 10 15 416 0 426 -6 4 -15 26 -19 50 -4 23 -11 42
-16 42 -5 0 -12 18 -15 40 -4 22 -10 40 -15 40 -5 0 -9 7 -9 15 0 9 -6 18 -14
21 -8 3 -16 19 -20 35 -3 16 -17 40 -31 53 -14 13 -25 27 -25 31 0 12 -137
145 -149 145 -6 0 -11 4 -11 10 0 5 -11 12 -25 16 -13 3 -27 14 -30 24 -3 10
-17 21 -32 24 -14 4 -32 14 -40 21 -8 8 -23 15 -34 15 -10 0 -19 4 -19 10 0 5
-18 13 -40 16 -22 4 -40 10 -40 14 0 5 -29 12 -65 15 -36 4 -65 11 -65 16 0 5
-167 9 -380 9 l-380 0 0 -1290z m680 961 c0 -4 30 -11 67 -14 37 -4 69 -11 72
-16 3 -4 21 -12 39 -16 17 -3 32 -11 32 -16 0 -5 11 -11 25 -15 13 -3 27 -15
30 -25 4 -10 12 -19 19 -19 16 0 66 -45 66 -59 0 -5 13 -23 29 -39 17 -16 33
-41 37 -56 3 -14 10 -26 14 -26 4 0 11 -12 15 -27 3 -15 11 -30 16 -33 4 -3
11 -38 15 -78 4 -40 11 -72 15 -72 5 0 9 -11 9 -25 0 -14 -4 -25 -9 -25 -4 0
-11 -37 -14 -81 -3 -45 -10 -85 -15 -88 -5 -3 -13 -21 -17 -38 -3 -18 -10 -33
-15 -33 -4 0 -11 -11 -14 -25 -4 -14 -11 -25 -16 -25 -6 0 -10 -5 -10 -11 0
-14 -125 -139 -138 -139 -6 0 -12 -7 -16 -15 -3 -8 -12 -15 -21 -15 -8 0 -15
-4 -15 -10 0 -5 -17 -12 -37 -16 -21 -4 -41 -12 -45 -18 -5 -7 -84 -12 -238
-14 l-230 -4 0 551 0 551 175 0 c96 0 175 -4 175 -9z"/>
<path d="M12790 2686 c0 -1161 2 -1284 16 -1290 9 -3 83 -6 165 -6 l149 0 0
930 c0 538 4 930 9 930 5 0 12 -11 15 -25 4 -14 10 -25 15 -25 5 0 12 -13 16
-29 3 -16 13 -32 21 -35 8 -3 14 -12 14 -21 0 -8 4 -15 9 -15 5 0 12 -13 16
-30 4 -16 11 -30 16 -30 5 0 11 -11 15 -25 3 -14 10 -25 14 -25 5 0 11 -13 15
-30 4 -16 11 -30 16 -30 5 0 11 -11 15 -25 3 -14 10 -25 15 -25 5 0 9 -7 9
-15 0 -9 6 -18 14 -21 8 -3 18 -19 21 -35 4 -16 11 -29 16 -29 5 0 11 -11 15
-25 3 -14 10 -25 14 -25 5 0 11 -13 15 -30 4 -16 11 -30 16 -30 5 0 9 -7 9
-15 0 -8 4 -15 10 -15 5 0 12 -11 16 -25 3 -14 10 -25 14 -25 5 0 11 -13 15
-29 3 -16 13 -32 21 -35 8 -3 14 -12 14 -21 0 -8 4 -15 9 -15 5 0 12 -11 15
-25 4 -14 10 -25 15 -25 5 0 12 -13 16 -30 4 -17 10 -30 15 -30 4 0 11 -11 14
-25 4 -14 10 -25 15 -25 5 0 12 -13 16 -30 4 -16 11 -30 16 -30 5 0 9 -7 9
-15 0 -9 6 -18 14 -21 8 -3 18 -19 21 -35 4 -16 11 -29 16 -29 5 0 11 -11 15
-25 3 -14 10 -25 14 -25 5 0 11 -13 15 -30 4 -16 11 -30 16 -30 5 0 11 -11 15
-25 3 -14 10 -25 14 -25 5 0 11 -13 15 -29 3 -16 13 -32 21 -35 8 -3 14 -12
14 -21 0 -8 5 -15 10 -15 6 0 10 -7 10 -15 0 -8 7 -15 15 -15 8 0 15 7 15 15
0 9 6 18 14 21 8 3 18 19 21 35 4 16 11 29 16 29 5 0 11 11 15 25 3 14 10 25
14 25 5 0 11 13 15 30 4 17 11 30 16 30 5 0 11 11 15 25 3 14 10 25 15 25 5 0
9 7 9 15 0 9 6 18 14 21 8 3 18 19 21 35 4 16 10 29 15 29 4 0 11 11 14 25 4
14 10 25 15 25 5 0 12 13 16 30 4 17 10 30 15 30 4 0 11 11 14 25 4 14 10 25
15 25 5 0 12 14 16 30 4 17 11 30 16 30 5 0 9 7 9 15 0 9 6 18 14 21 8 3 18
19 21 35 4 16 10 29 15 29 4 0 11 11 14 25 4 14 10 25 15 25 5 0 12 14 16 30
4 17 11 30 16 30 5 0 11 11 15 25 3 14 10 25 15 25 5 0 9 7 9 15 0 9 6 18 14
21 8 3 18 19 21 35 4 16 10 29 15 29 5 0 11 14 15 30 4 17 11 30 16 30 5 0 11
11 15 25 3 14 10 25 14 25 4 0 11 11 14 25 4 14 10 25 15 25 5 0 12 14 16 30
4 17 10 30 15 30 5 0 11 13 15 29 3 16 13 32 21 35 8 3 14 12 14 21 0 8 4 15
9 15 5 0 12 11 15 25 4 14 10 25 15 25 5 0 12 14 16 30 4 17 11 30 16 30 5 0
9 -370 9 -930 l0 -930 165 0 165 0 0 1290 0 1290 -146 0 c-149 0 -162 -3 -177
-42 -3 -10 -11 -18 -16 -18 -5 0 -12 -13 -16 -30 -4 -16 -11 -30 -16 -30 -5 0
-9 -9 -9 -20 0 -11 -6 -23 -14 -26 -8 -3 -18 -19 -21 -35 -4 -16 -10 -29 -15
-29 -4 0 -11 -11 -14 -25 -4 -14 -10 -25 -15 -25 -5 0 -12 -13 -16 -29 -3 -16
-13 -32 -21 -35 -8 -3 -14 -12 -14 -21 0 -8 -4 -15 -10 -15 -5 0 -12 -15 -16
-34 -3 -19 -12 -37 -20 -40 -8 -3 -14 -12 -14 -21 0 -8 -4 -15 -9 -15 -5 0
-12 -13 -16 -30 -4 -16 -11 -30 -16 -30 -5 0 -11 -11 -15 -25 -3 -14 -10 -25
-14 -25 -5 0 -11 -13 -15 -30 -4 -16 -11 -30 -16 -30 -5 0 -9 -7 -9 -15 0 -9
-6 -18 -14 -21 -8 -3 -17 -21 -20 -40 -4 -19 -11 -34 -16 -34 -6 0 -10 -7 -10
-15 0 -9 -6 -18 -14 -21 -8 -3 -17 -16 -20 -30 -4 -13 -10 -24 -15 -24 -5 0
-12 -13 -16 -30 -4 -16 -10 -30 -15 -30 -5 0 -11 -13 -15 -29 -3 -16 -13 -32
-21 -35 -8 -3 -14 -12 -14 -21 0 -8 -4 -15 -10 -15 -5 0 -10 -9 -10 -20 0 -11
-6 -23 -14 -26 -8 -3 -18 -19 -21 -35 -4 -16 -10 -29 -15 -29 -4 0 -11 -11
-14 -25 -4 -14 -10 -25 -15 -25 -5 0 -12 -13 -16 -30 -4 -16 -11 -30 -16 -30
-5 0 -9 -7 -9 -15 0 -9 -7 -18 -15 -21 -8 -3 -17 -21 -21 -40 -3 -19 -10 -34
-15 -34 -5 0 -9 -7 -9 -15 0 -9 -6 -18 -14 -21 -8 -3 -18 -19 -21 -35 -7 -33
-22 -38 -32 -11 -4 9 -13 23 -20 30 -7 7 -13 20 -13 28 0 8 -4 14 -9 14 -5 0
-12 14 -16 30 -4 17 -11 30 -16 30 -5 0 -11 11 -15 25 -3 14 -10 25 -15 25 -5
0 -9 7 -9 15 0 9 -6 18 -14 21 -8 3 -18 19 -21 35 -4 16 -10 29 -15 29 -4 0
-11 11 -14 25 -4 14 -10 25 -15 25 -5 0 -12 14 -16 30 -4 17 -10 30 -15 30 -4
0 -11 11 -14 25 -4 14 -10 25 -15 25 -5 0 -12 14 -16 30 -4 17 -11 30 -16 30
-5 0 -9 7 -9 15 0 9 -6 18 -14 21 -8 3 -18 19 -21 35 -4 16 -11 29 -16 29 -5
0 -11 11 -15 25 -3 14 -10 25 -14 25 -5 0 -11 14 -15 30 -4 17 -11 30 -16 30
-5 0 -11 11 -15 25 -3 14 -10 25 -15 25 -5 0 -9 6 -9 14 0 8 -7 16 -15 20 -8
3 -15 12 -15 21 0 8 -4 15 -9 15 -5 0 -12 14 -16 30 -4 17 -10 30 -15 30 -4 0
-11 11 -14 25 -4 14 -10 25 -15 25 -5 0 -12 14 -16 30 -4 17 -11 30 -16 30 -5
0 -11 11 -15 25 -3 14 -10 25 -14 25 -5 0 -11 13 -15 29 -3 16 -13 32 -21 35
-8 3 -14 12 -14 21 0 8 -4 15 -9 15 -5 0 -12 14 -16 30 -4 17 -11 30 -16 30
-5 0 -11 11 -15 25 -3 14 -10 25 -14 25 -4 0 -11 11 -14 25 -4 14 -10 25 -15
25 -5 0 -12 13 -16 29 -3 16 -13 32 -21 35 -8 3 -14 10 -14 16 0 34 -28 40
-174 40 l-146 0 0 -1284z"/>
<path d="M16364 3930 c-4 -22 -10 -40 -15 -40 -5 0 -12 -18 -15 -40 -4 -22
-10 -40 -14 -40 -4 0 -11 -16 -14 -35 -4 -19 -11 -35 -15 -35 -5 0 -11 -19
-14 -41 -3 -23 -10 -45 -15 -48 -5 -3 -13 -25 -17 -48 -4 -24 -10 -43 -15 -43
-5 0 -11 -18 -15 -40 -4 -22 -10 -40 -15 -40 -4 0 -11 -20 -14 -45 -4 -25 -11
-45 -16 -45 -6 0 -13 -18 -16 -40 -4 -22 -10 -40 -15 -40 -4 0 -11 -20 -15
-45 -3 -25 -10 -45 -15 -45 -5 0 -12 -18 -15 -40 -4 -22 -10 -40 -15 -40 -4 0
-11 -20 -15 -45 -3 -25 -10 -45 -15 -45 -4 0 -11 -16 -15 -35 -3 -19 -10 -35
-14 -35 -4 0 -10 -18 -14 -40 -3 -22 -10 -40 -15 -40 -5 0 -12 -20 -15 -45 -4
-25 -11 -45 -15 -45 -5 0 -11 -18 -15 -40 -3 -22 -10 -40 -16 -40 -5 0 -12
-20 -16 -45 -3 -25 -10 -45 -14 -45 -4 0 -11 -20 -14 -45 -4 -25 -11 -45 -16
-45 -6 0 -13 -18 -16 -40 -4 -22 -10 -40 -14 -40 -4 0 -11 -16 -14 -35 -4 -19
-11 -35 -15 -35 -5 0 -11 -21 -14 -46 -2 -26 -10 -49 -15 -53 -6 -4 -14 -26
-18 -49 -4 -23 -10 -42 -15 -42 -4 0 -11 -16 -15 -35 -3 -19 -10 -35 -14 -35
-4 0 -10 -18 -14 -40 -3 -22 -10 -40 -15 -40 -5 0 -12 -20 -15 -45 -4 -25 -11
-45 -15 -45 -5 0 -12 -20 -15 -45 -4 -25 -11 -45 -16 -45 -6 0 -13 -18 -16
-40 -4 -22 -10 -40 -14 -40 -4 0 -11 -20 -14 -45 -4 -25 -11 -45 -17 -45 -5 0
-9 -7 -9 -15 0 -8 -4 -15 -9 -15 -5 0 -12 -20 -15 -45 -4 -25 -11 -45 -16 -45
-6 0 -13 -18 -16 -40 -4 -22 -10 -40 -14 -40 -4 0 -11 -20 -14 -45 -4 -25 -11
-45 -17 -45 -5 0 -9 -7 -9 -15 0 -13 26 -15 175 -15 149 0 175 2 175 15 0 8 4
15 9 15 6 0 13 20 17 45 3 25 10 45 15 45 5 0 12 18 15 40 4 22 10 40 15 40 4
0 11 20 15 45 3 25 10 45 14 45 4 0 11 16 14 35 4 19 11 35 16 35 4 0 11 22
15 50 4 27 11 50 15 50 5 0 12 16 16 35 3 19 10 35 14 35 4 0 11 20 14 45 4
25 11 45 15 45 5 0 11 18 15 40 3 22 10 40 15 40 5 0 12 20 15 45 4 25 11 45
15 45 5 0 12 20 15 45 4 25 11 45 17 45 5 0 9 7 9 15 0 13 45 15 345 15 l344
0 7 -35 c3 -19 10 -35 14 -35 4 0 10 -18 14 -40 3 -22 10 -40 15 -40 5 0 11
-19 14 -41 3 -23 10 -45 15 -48 5 -3 13 -25 17 -48 4 -24 10 -43 15 -43 4 0
10 -18 14 -40 3 -22 10 -40 16 -40 5 0 12 -20 16 -45 3 -25 10 -45 14 -45 4 0
10 -18 14 -40 3 -22 10 -40 16 -40 5 0 12 -20 16 -45 3 -25 10 -45 15 -45 4 0
11 -16 15 -35 3 -19 10 -35 14 -35 5 0 11 -23 15 -50 4 -28 11 -50 15 -50 5 0
12 -16 16 -35 l6 -35 174 0 c148 0 174 2 174 15 0 8 -4 15 -9 15 -6 0 -13 20
-17 45 -3 25 -10 45 -15 45 -5 0 -12 18 -15 40 -4 22 -10 40 -15 40 -4 0 -11
20 -15 45 -3 25 -10 45 -14 45 -4 0 -11 16 -14 35 -4 19 -11 35 -16 35 -4 0
-11 22 -15 50 -4 27 -11 50 -15 50 -5 0 -12 16 -16 35 -3 19 -10 35 -14 35 -4
0 -11 20 -14 45 -4 25 -11 45 -15 45 -5 0 -11 18 -15 40 -3 22 -10 40 -15 40
-5 0 -12 20 -15 45 -4 25 -11 45 -16 45 -6 0 -13 18 -16 40 -4 22 -10 40 -15
40 -4 0 -11 20 -15 45 -3 25 -10 45 -14 45 -4 0 -10 18 -14 40 -3 22 -10 40
-16 40 -5 0 -12 20 -16 45 -3 25 -10 45 -15 45 -4 0 -11 20 -15 45 -3 25 -10
45 -15 45 -5 0 -12 18 -15 40 -4 22 -10 40 -14 40 -4 0 -11 16 -14 35 -4 19
-11 35 -15 35 -5 0 -12 20 -15 45 -4 25 -11 45 -16 45 -6 0 -13 18 -16 40 -4
22 -10 40 -14 40 -4 0 -11 20 -14 45 -4 25 -11 45 -16 45 -6 0 -13 18 -16 40
-4 22 -10 40 -15 40 -4 0 -11 20 -15 45 -3 25 -10 45 -15 45 -5 0 -12 18 -15
40 -4 22 -10 40 -15 40 -4 0 -11 20 -15 45 -3 25 -10 45 -14 45 -4 0 -11 16
-14 35 -4 19 -11 35 -15 35 -5 0 -12 20 -15 45 -4 25 -11 45 -16 45 -4 0 -11
18 -15 40 -4 22 -10 40 -15 40 -4 0 -11 20 -14 45 -4 25 -11 45 -16 45 -6 0
-13 18 -16 40 -4 22 -10 40 -15 40 -4 0 -11 20 -15 45 -3 25 -10 45 -14 45 -4
0 -10 18 -14 41 -10 62 -22 69 -120 69 l-86 0 -6 -40z m122 -750 c4 -22 10
-40 14 -40 4 0 11 -16 14 -35 4 -19 11 -35 15 -35 5 0 12 -20 15 -45 4 -25 11
-45 16 -45 6 0 13 -18 16 -40 4 -22 10 -40 14 -40 4 0 11 -20 14 -45 4 -25 11
-45 16 -45 5 0 12 -17 16 -37 4 -21 11 -41 16 -44 5 -3 11 -29 15 -57 l6 -52
-212 0 -211 0 0 35 c0 19 4 35 9 35 5 0 12 16 15 35 4 19 11 35 15 35 5 0 12
20 15 45 4 25 11 45 16 45 6 0 13 18 16 40 4 22 10 40 14 40 4 0 11 20 14 45
4 25 11 45 15 45 5 0 11 18 15 40 3 22 10 40 16 40 5 0 12 20 16 45 3 25 10
45 15 45 5 0 9 7 9 15 0 8 7 15 15 15 10 0 17 -14 21 -40z"/>
<path d="M191 2185 c0 -141 2 -165 20 -205 11 -24 23 -47 27 -50 4 -3 32 -52
61 -110 30 -58 65 -121 77 -141 13 -20 32 -56 44 -80 27 -59 231 -343 285
-399 24 -25 53 -56 65 -70 14 -17 10 -5 -11 35 -17 33 -39 68 -49 77 -10 9
-40 61 -67 115 -28 54 -68 127 -90 163 -78 129 -232 456 -269 570 -20 63 -40
117 -44 120 -4 3 -16 34 -27 70 l-21 65 -1 -160z"/>
<path d="M190 803 l0 -793 927 0 c593 0 924 3 917 10 -5 5 -56 27 -114 49
-194 73 -357 143 -370 160 -3 4 -51 32 -108 64 -56 31 -133 77 -171 102 -37
25 -71 45 -75 45 -25 0 -237 181 -381 326 -145 145 -325 349 -325 367 0 3 -28
46 -62 94 -35 49 -90 134 -123 188 -32 55 -62 102 -66 105 -4 3 -16 21 -28 40
l-21 35 0 -792z"/>
<path d="M6026 1239 c-32 -44 -64 -83 -72 -86 -8 -3 -14 -10 -14 -17 0 -20
-151 -185 -308 -336 -227 -219 -453 -381 -692 -497 -74 -36 -137 -69 -140 -73
-21 -30 -298 -125 -555 -190 l-110 -29 251 0 251 -1 134 68 c74 38 153 81 176
95 24 15 47 27 53 27 5 0 18 8 28 18 11 11 66 51 123 90 109 75 296 221 389
304 74 66 246 261 334 377 39 52 81 106 94 119 12 14 22 29 22 33 0 5 17 37
38 71 44 72 64 108 60 108 -2 0 -30 -36 -62 -81z"/>
<path d="M14193 1133 c-18 -2 -33 -8 -33 -13 0 -4 -12 -11 -26 -14 -14 -4 -36
-18 -48 -31 -13 -14 -28 -25 -35 -25 -6 0 -11 -6 -11 -13 0 -7 -9 -20 -20 -30
-11 -9 -20 -23 -20 -31 0 -8 -6 -16 -12 -19 -10 -3 -13 -40 -12 -144 l2 -141
-34 -7 c-19 -3 -34 -10 -34 -15 0 -4 -13 -11 -30 -15 -16 -4 -30 -11 -30 -16
0 -5 -11 -11 -25 -15 -14 -3 -25 -10 -25 -15 0 -4 -16 -23 -35 -42 -19 -19
-35 -39 -35 -46 0 -6 -4 -11 -9 -11 -5 0 -13 -10 -17 -22 -4 -13 -12 -26 -18
-30 -16 -10 -15 -220 2 -225 6 -3 12 -13 12 -23 0 -21 55 -80 75 -80 7 0 15
-7 19 -15 3 -8 12 -15 20 -15 8 0 16 -5 18 -12 5 -15 216 -17 226 -2 4 6 22
15 40 19 17 3 32 11 32 16 0 5 6 9 14 9 8 0 21 7 30 15 27 27 72 30 92 6 10
-12 24 -21 31 -21 7 0 13 -4 13 -10 0 -5 6 -10 14 -10 8 0 22 -8 31 -17 14
-13 37 -17 117 -17 65 -1 101 3 106 11 4 6 20 15 35 18 15 4 27 11 27 16 0 5
6 9 14 9 20 0 95 76 101 102 3 13 1 29 -4 37 -8 12 -15 9 -37 -17 -16 -18 -32
-32 -37 -32 -5 0 -15 -7 -23 -15 -10 -10 -35 -15 -71 -15 -53 0 -58 2 -104 49
-26 27 -51 61 -55 75 -3 14 -10 26 -15 26 -5 0 -9 14 -9 30 0 17 4 30 10 30 5
0 12 11 16 25 3 14 10 25 14 25 5 0 11 13 15 30 4 17 11 30 15 30 5 0 12 16
16 35 3 19 10 35 14 35 4 0 11 15 14 34 5 24 14 37 29 42 12 4 25 12 29 18 4
6 8 -1 8 -16 0 -16 5 -28 10 -28 6 0 10 -10 10 -23 0 -33 34 -57 80 -57 46 0
80 24 80 57 0 13 5 23 10 23 6 0 10 11 10 25 0 14 -4 25 -10 25 -5 0 -10 6
-10 13 0 19 -46 57 -69 57 -12 0 -21 5 -21 10 0 6 -13 10 -30 10 -16 0 -30 -4
-30 -10 0 -5 -9 -10 -19 -10 -11 0 -26 -6 -33 -13 -7 -7 -21 -16 -30 -20 -10
-3 -18 -13 -18 -22 0 -8 -4 -15 -10 -15 -5 0 -12 -11 -16 -25 -3 -14 -10 -25
-14 -25 -5 0 -11 -13 -15 -30 -4 -16 -10 -30 -15 -30 -4 0 -10 -18 -14 -40 -3
-22 -11 -40 -16 -40 -6 0 -10 -6 -10 -13 0 -7 -8 -20 -18 -28 -22 -19 -39 -5
-48 41 -4 16 -10 30 -14 30 -5 0 -11 13 -15 30 -4 17 -10 30 -15 30 -4 0 -11
18 -15 40 -4 22 -11 40 -15 40 -12 0 -23 64 -16 88 5 13 19 22 46 26 22 3 40
10 40 15 0 5 16 12 35 15 19 4 35 11 35 16 0 6 6 10 14 10 8 0 21 6 28 13 7 7
21 16 31 20 9 3 17 15 17 26 0 10 7 21 15 25 11 4 15 22 15 72 0 64 -2 68 -39
105 -21 22 -48 39 -59 39 -11 0 -22 5 -24 12 -4 12 -145 20 -205 11z m107 -43
c0 -5 6 -10 14 -10 8 0 17 -13 21 -30 4 -16 11 -30 16 -30 5 0 9 -20 9 -45 0
-25 -4 -45 -9 -45 -5 0 -12 -16 -16 -36 -6 -37 -47 -84 -71 -84 -8 0 -14 -4
-14 -9 0 -11 -35 -20 -48 -12 -6 3 -14 30 -18 59 -3 28 -10 52 -15 52 -5 0 -9
27 -9 60 0 33 4 60 9 60 5 0 12 11 15 25 4 15 16 27 31 31 14 3 25 10 25 15 0
5 14 9 30 9 17 0 30 -4 30 -10z m-280 -480 c4 0 11 -20 14 -45 4 -25 11 -45
16 -45 6 0 13 -18 16 -40 4 -22 10 -40 14 -40 5 0 11 -13 15 -30 4 -17 11 -30
16 -30 5 0 9 -9 9 -19 0 -11 6 -26 14 -33 7 -8 17 -25 21 -38 4 -14 11 -27 16
-30 4 -3 10 -17 14 -31 7 -30 -15 -59 -46 -59 -10 0 -19 -4 -19 -10 0 -5 -13
-10 -30 -10 -16 0 -30 5 -30 10 0 6 -6 10 -14 10 -19 0 -76 57 -76 76 0 8 -4
14 -9 14 -5 0 -12 13 -16 30 -4 16 -10 30 -15 30 -4 0 -11 20 -14 45 -4 25
-11 45 -17 45 -5 0 -9 27 -9 60 0 33 4 60 10 60 6 0 10 6 10 14 0 17 58 81 80
88 8 3 16 -1 18 -9 2 -7 7 -13 12 -13z"/>
<path d="M12490 1120 c0 -5 -6 -10 -13 -10 -7 0 -20 -9 -30 -20 -36 -42 -9
-56 29 -15 13 14 28 25 34 25 5 0 10 7 10 15 0 8 -7 15 -15 15 -8 0 -15 -4
-15 -10z"/>
<path d="M17303 1094 c-18 -19 -33 -39 -33 -44 0 -16 20 -12 26 5 4 8 12 15
19 15 18 0 45 28 45 46 0 23 -23 14 -57 -22z"/>
<path d="M9460 941 c0 -5 -24 -12 -54 -15 -33 -5 -57 -13 -60 -22 -3 -8 -11
-14 -18 -14 -7 0 -22 -11 -32 -25 -10 -14 -27 -25 -37 -25 -11 0 -19 -7 -19
-15 0 -8 -9 -23 -20 -32 -11 -10 -20 -23 -20 -30 0 -7 -4 -13 -10 -13 -5 0
-13 -12 -16 -27 -4 -16 -12 -31 -18 -35 -16 -10 -15 -236 1 -246 6 -4 15 -20
18 -35 4 -15 11 -27 16 -27 5 0 9 -5 9 -11 0 -17 114 -126 141 -134 13 -4 27
-12 30 -17 3 -5 31 -12 62 -15 32 -3 57 -10 57 -14 0 -5 14 -9 30 -9 17 0 30
4 30 9 0 4 27 11 60 15 33 4 60 11 60 15 0 5 12 12 26 15 14 4 36 18 48 31 13
14 28 25 35 25 6 0 11 6 11 14 0 8 13 28 29 44 17 16 33 42 37 58 4 16 12 32
18 36 16 10 15 246 -1 256 -6 4 -15 20 -18 35 -4 15 -11 27 -15 27 -5 0 -12 9
-15 20 -8 24 -71 90 -85 90 -6 0 -10 4 -10 10 0 5 -11 12 -25 16 -14 3 -25 10
-25 15 0 4 -22 11 -50 15 -27 4 -50 10 -50 15 0 5 -27 9 -60 9 -33 0 -60 -4
-60 -9z m120 -30 c0 -6 20 -13 45 -17 25 -3 45 -10 45 -15 0 -5 7 -9 15 -9 8
0 15 -5 15 -10 0 -6 8 -14 17 -17 23 -9 53 -35 53 -47 0 -5 11 -19 25 -32 14
-13 28 -38 32 -56 3 -18 11 -36 16 -40 14 -9 11 -202 -2 -206 -6 -2 -11 -15
-11 -28 0 -14 -7 -27 -15 -30 -8 -4 -15 -12 -15 -18 0 -16 -104 -126 -118
-126 -6 0 -12 -5 -14 -10 -2 -6 -33 -13 -71 -17 -37 -3 -67 -10 -67 -14 0 -5
-9 -9 -20 -9 -11 0 -20 4 -20 9 0 5 -23 11 -51 13 -28 3 -54 10 -58 16 -3 6
-19 14 -34 17 -15 4 -27 11 -27 15 0 11 -59 70 -71 70 -5 0 -11 11 -15 25 -3
14 -10 25 -15 25 -4 0 -11 16 -15 35 -3 19 -10 35 -15 35 -5 0 -9 43 -9 95 0
52 4 95 9 95 5 0 12 16 15 35 4 19 11 35 15 35 5 0 12 11 15 24 3 14 15 28 26
31 11 3 20 13 20 21 0 8 6 14 14 14 8 0 16 7 20 15 3 8 11 15 18 15 8 0 20 9
28 20 9 13 31 22 62 26 26 4 48 10 48 15 0 5 25 9 55 9 30 0 55 -4 55 -9z"/>
<path d="M10250 940 c0 -5 -9 -10 -19 -10 -23 0 -81 -55 -81 -76 0 -8 -4 -14
-10 -14 -5 0 -10 -20 -10 -45 0 -25 5 -45 10 -45 6 0 10 -9 10 -21 0 -23 38
-69 58 -69 6 0 12 -4 12 -9 0 -5 14 -12 30 -16 17 -4 30 -10 30 -15 0 -5 14
-11 30 -15 17 -4 30 -11 30 -16 0 -5 5 -9 10 -9 12 0 80 -63 80 -74 0 -4 7
-15 16 -24 13 -13 15 -30 12 -88 -3 -39 -10 -78 -17 -85 -50 -59 -65 -71 -96
-76 -19 -3 -35 -10 -35 -14 0 -5 -13 -9 -30 -9 -16 0 -30 4 -30 9 0 5 -14 11
-31 15 -42 8 -89 58 -96 101 -5 29 -10 35 -29 35 -15 0 -24 -6 -24 -15 0 -8 4
-15 9 -15 5 0 13 -14 16 -32 8 -32 48 -78 71 -78 7 0 14 -5 16 -11 2 -5 22
-13 46 -16 23 -3 42 -10 42 -14 0 -5 9 -9 20 -9 11 0 20 5 20 10 0 6 13 10 29
10 16 0 36 7 45 15 8 8 18 15 22 15 4 0 23 17 43 37 l36 37 0 101 0 100 -47
48 c-27 26 -53 47 -58 47 -6 0 -13 6 -16 14 -3 7 -23 16 -45 20 -21 3 -39 11
-39 16 0 6 -7 10 -15 10 -9 0 -18 6 -21 14 -3 8 -16 17 -29 20 -16 4 -26 16
-30 36 -4 16 -11 30 -16 30 -5 0 -9 14 -9 30 0 17 5 30 10 30 6 0 10 6 10 13
0 18 42 67 58 67 7 0 12 5 12 10 0 6 14 10 30 10 17 0 30 -4 30 -9 0 -5 14
-12 30 -16 20 -4 30 -13 30 -25 0 -16 18 -30 41 -30 5 0 9 7 9 15 0 8 -4 15
-9 15 -5 0 -12 11 -15 24 -4 17 -15 26 -36 31 -16 4 -30 11 -30 16 0 5 -18 9
-40 9 -22 0 -40 -4 -40 -10z"/>
<path d="M15390 941 c0 -4 -21 -11 -46 -14 -26 -2 -49 -9 -53 -15 -3 -5 -16
-13 -29 -17 -30 -9 -138 -118 -148 -148 -4 -12 -12 -25 -18 -29 -16 -11 -15
-300 2 -305 6 -3 12 -11 12 -19 0 -8 7 -17 15 -20 8 -4 15 -12 15 -18 0 -16
74 -96 88 -96 7 0 12 -4 12 -9 0 -5 10 -13 23 -17 12 -4 25 -11 28 -17 4 -5
39 -12 78 -15 39 -2 71 -9 71 -13 0 -5 9 -9 20 -9 11 0 20 4 20 9 0 4 28 11
62 15 39 4 65 12 71 21 4 8 15 15 22 15 8 0 15 5 15 10 0 6 7 10 15 10 10 0
15 9 14 28 0 15 -3 21 -6 15 -2 -7 -11 -13 -19 -13 -8 0 -14 -4 -14 -9 0 -5
-10 -13 -22 -17 -13 -4 -26 -11 -30 -17 -3 -6 -31 -12 -62 -15 -31 -2 -56 -8
-56 -13 0 -5 -7 -9 -15 -9 -8 0 -15 4 -15 9 0 4 -30 11 -67 14 -38 4 -69 11
-71 17 -2 5 -10 10 -18 10 -8 0 -17 7 -20 15 -4 8 -10 15 -16 15 -13 0 -78 65
-78 79 0 6 -4 11 -9 11 -5 0 -12 12 -16 27 -3 15 -12 31 -18 35 -16 10 -17
236 -1 246 6 4 14 19 18 35 3 15 11 27 16 27 6 0 10 5 10 11 0 15 74 89 89 89
6 0 11 5 11 10 0 6 7 10 15 10 8 0 15 4 15 9 0 5 20 12 45 15 25 4 45 11 45
17 0 5 20 9 45 9 25 0 45 -4 45 -9 0 -5 25 -12 55 -16 30 -3 55 -11 55 -16 0
-5 7 -9 15 -9 8 0 15 -4 15 -9 0 -5 10 -13 23 -17 12 -4 25 -12 29 -18 4 -6 8
1 8 17 0 16 -5 27 -14 27 -8 0 -16 7 -20 15 -3 8 -12 15 -21 15 -8 0 -15 4
-15 9 0 5 -25 13 -55 16 -30 4 -55 11 -55 16 0 5 -25 9 -55 9 -30 0 -55 -4
-55 -9z"/>
<path d="M7380 566 c0 -319 2 -366 15 -366 8 0 15 7 15 15 0 8 5 15 10 15 6 0
10 14 10 30 0 17 -4 30 -10 30 -16 0 -12 139 4 156 21 21 120 19 146 -3 11
-10 20 -23 20 -30 0 -7 4 -13 9 -13 5 0 12 -11 15 -25 4 -14 11 -25 16 -25 6
0 10 -7 10 -15 0 -9 7 -18 15 -21 8 -4 15 -15 15 -25 0 -11 7 -22 15 -25 8 -4
15 -12 15 -19 0 -18 28 -45 46 -45 19 0 18 26 -1 34 -8 3 -15 12 -15 21 0 8
-4 15 -9 15 -5 0 -13 10 -17 22 -3 12 -13 28 -20 36 -8 7 -14 20 -14 28 0 8
-4 14 -10 14 -5 0 -10 7 -10 15 0 7 -6 18 -14 22 -7 4 -17 18 -21 31 -5 19 -3
25 14 29 12 3 21 9 21 14 0 5 6 9 14 9 7 0 32 18 55 40 32 32 43 50 48 85 3
25 10 45 14 45 5 0 9 16 9 35 0 19 -4 35 -9 35 -4 0 -11 18 -14 40 -3 26 -15
50 -36 71 -17 17 -31 34 -31 39 0 5 -10 12 -22 16 -13 4 -26 12 -30 18 -5 7
-56 12 -138 14 l-130 4 0 -366z m258 317 c2 -7 8 -13 13 -13 4 0 25 -17 46
-37 l38 -38 0 -100 0 -101 -36 -37 c-20 -20 -41 -37 -47 -37 -6 0 -12 -6 -14
-12 -3 -9 -36 -14 -106 -16 -88 -3 -102 -2 -102 12 0 9 -4 16 -10 16 -16 0
-13 267 3 274 10 5 10 7 0 12 -7 3 -13 12 -13 20 0 8 6 14 13 15 10 0 10 2 0
6 -7 2 -13 13 -13 23 0 27 14 30 124 27 69 -1 101 -6 104 -14z"/>
<path d="M7980 565 l0 -365 175 0 c149 0 175 2 175 15 0 13 -24 15 -160 15
l-160 0 0 160 0 160 160 0 c136 0 160 2 160 15 0 13 -24 15 -160 15 l-160 0 0
160 0 160 159 0 c132 0 160 3 165 15 5 13 -19 15 -174 15 l-180 0 0 -365z"/>
<path d="M8550 572 c0 -377 -1 -372 41 -372 5 0 9 57 9 129 l0 129 107 4 c74
2 108 7 111 16 2 6 9 12 17 12 22 0 93 77 100 109 4 17 11 31 16 31 5 0 9 29
9 65 0 37 -4 65 -10 65 -5 0 -10 10 -10 23 0 12 -9 30 -20 40 -11 9 -20 24
-20 32 0 8 -7 15 -15 15 -8 0 -15 4 -15 9 0 5 -10 13 -22 17 -13 4 -26 12 -30
18 -5 7 -56 12 -138 14 l-130 4 0 -360z m304 274 c31 -32 50 -60 53 -82 3 -19
10 -34 14 -34 5 0 9 -13 9 -30 0 -16 -4 -30 -9 -30 -4 0 -11 -18 -14 -40 -4
-30 -16 -51 -53 -87 l-47 -48 -104 -3 -103 -4 0 207 0 207 103 -4 103 -3 48
-49z"/>
<path d="M10640 915 c0 -12 17 -15 90 -15 l90 0 0 -304 c0 -234 3 -306 13
-310 10 -5 10 -7 0 -12 -19 -8 -16 -61 3 -68 9 -3 20 -6 25 -6 5 0 9 144 9
350 l0 350 90 0 c73 0 90 3 90 15 0 13 -29 15 -205 15 -176 0 -205 -2 -205
-15z"/>
<path d="M11240 565 l0 -365 185 0 c158 0 185 2 185 15 0 13 -24 15 -154 15
-85 0 -161 3 -170 6 -14 5 -16 28 -16 146 0 107 3 143 14 154 11 11 49 14 170
14 132 0 156 2 156 15 0 13 -24 15 -156 15 -121 0 -159 3 -170 14 -11 11 -14
47 -14 154 0 118 2 141 16 146 9 3 85 6 170 6 130 0 154 2 154 15 0 13 -27 15
-185 15 l-185 0 0 -365z"/>
<path d="M11830 566 c0 -319 2 -366 15 -366 12 0 15 20 15 116 0 138 4 144 84
144 57 0 96 -19 96 -47 0 -7 4 -13 9 -13 5 0 12 -11 15 -25 4 -14 11 -25 16
-25 6 0 10 -7 10 -15 0 -9 7 -18 15 -21 8 -4 15 -15 15 -25 0 -11 6 -22 14
-25 8 -3 18 -19 21 -35 5 -22 12 -29 31 -29 27 0 33 24 9 34 -8 3 -15 12 -15
21 0 8 -4 15 -9 15 -5 0 -13 10 -17 22 -3 12 -13 28 -20 36 -8 7 -14 19 -14
27 0 7 -7 15 -15 19 -8 3 -15 12 -15 20 0 8 -4 16 -9 18 -4 2 -12 13 -16 26
-5 19 -3 25 14 29 12 3 21 9 21 14 0 5 6 9 14 9 19 0 76 57 76 76 0 8 4 14 10
14 5 0 13 18 16 40 4 22 10 40 15 40 5 0 9 16 9 35 0 19 -4 35 -9 35 -5 0 -11
18 -15 41 -4 26 -17 52 -36 71 -17 16 -30 33 -30 38 0 5 -10 12 -22 16 -13 4
-26 12 -30 18 -5 7 -56 12 -138 14 l-130 4 0 -366z m258 317 c2 -7 8 -13 13
-13 4 0 25 -17 46 -37 l38 -38 0 -100 0 -101 -36 -37 c-20 -20 -41 -37 -47
-37 -6 0 -12 -6 -14 -12 -5 -14 -160 -25 -203 -14 l-25 6 0 194 c0 146 3 196
13 200 25 11 210 1 215 -11z"/>
<path d="M12430 565 c0 -215 4 -365 9 -365 42 0 41 -5 41 371 l0 359 -25 0
-25 0 0 -365z"/>
<path d="M12930 910 c0 -11 -4 -20 -9 -20 -5 0 -11 -18 -15 -40 -3 -22 -10
-40 -15 -40 -5 0 -12 -20 -15 -45 -4 -25 -11 -45 -15 -45 -5 0 -11 -18 -15
-40 -3 -22 -10 -40 -16 -40 -5 0 -12 -20 -16 -45 -3 -25 -10 -45 -14 -45 -4 0
-10 -18 -14 -40 -3 -22 -10 -40 -16 -40 -5 0 -12 -20 -16 -45 -3 -25 -10 -45
-15 -45 -4 0 -11 -20 -15 -45 -3 -25 -10 -45 -15 -45 -4 0 -11 -17 -15 -37 -4
-21 -12 -41 -18 -45 -6 -4 1 -8 16 -8 23 0 28 5 34 35 3 19 10 35 14 35 5 0
11 23 15 50 4 28 11 50 15 50 5 0 12 16 16 35 3 19 10 35 14 35 4 0 11 11 14
25 6 25 7 25 122 25 127 0 140 -5 150 -59 4 -17 10 -31 14 -31 4 0 10 -18 14
-40 3 -22 10 -40 15 -40 5 0 12 -20 15 -45 4 -25 11 -45 17 -45 5 0 9 -7 9
-15 0 -8 8 -15 18 -15 15 0 18 6 14 30 -2 17 -8 30 -13 30 -5 0 -12 18 -15 40
-4 22 -10 40 -14 40 -4 0 -11 16 -14 35 -4 19 -11 35 -15 35 -5 0 -12 20 -15
45 -4 25 -11 45 -16 45 -4 0 -11 23 -15 50 -4 28 -11 50 -15 50 -5 0 -12 16
-16 35 -3 19 -10 35 -14 35 -4 0 -10 18 -14 40 -3 22 -10 40 -16 40 -5 0 -12
20 -16 45 -3 25 -10 45 -14 45 -4 0 -11 20 -14 45 -5 29 -12 45 -22 45 -8 0
-14 -9 -14 -20z m36 -135 c3 -25 10 -45 14 -45 4 0 11 -16 14 -35 4 -19 11
-35 16 -35 4 0 11 -22 15 -50 4 -27 11 -50 16 -50 5 0 9 -9 9 -20 0 -19 -7
-20 -106 -20 l-106 0 7 43 c4 23 11 44 15 47 4 3 10 22 14 43 4 20 11 37 16
37 5 0 12 20 16 45 3 25 10 45 15 45 5 0 9 9 9 20 0 11 6 20 14 20 10 0 17
-16 22 -45z"/>
<path d="M16094 885 c-3 -25 -10 -45 -14 -45 -4 0 -11 -20 -14 -45 -4 -25 -11
-45 -16 -45 -6 0 -13 -18 -16 -40 -4 -22 -10 -40 -14 -40 -4 0 -11 -16 -14
-35 -4 -19 -11 -35 -16 -35 -4 0 -11 -22 -15 -50 -4 -27 -10 -50 -15 -50 -4 0
-11 -16 -14 -35 -4 -19 -11 -35 -15 -35 -5 0 -12 -20 -15 -45 -4 -25 -11 -45
-15 -45 -5 0 -11 -18 -15 -40 -3 -22 -10 -40 -15 -40 -5 0 -11 -13 -13 -30 -4
-24 -1 -30 14 -30 10 0 18 7 18 15 0 8 4 15 9 15 6 0 13 20 17 45 3 25 10 45
14 45 4 0 10 18 14 40 3 22 10 40 15 40 5 0 11 14 15 31 10 54 23 59 150 59
115 0 116 0 122 -25 3 -14 10 -25 14 -25 4 0 11 -16 14 -35 4 -19 11 -35 16
-35 4 0 11 -22 15 -50 4 -27 10 -50 15 -50 4 0 11 -16 14 -35 5 -23 13 -35 23
-35 13 0 15 8 10 41 -3 23 -10 45 -15 48 -5 3 -13 25 -17 49 -4 23 -10 42 -15
42 -4 0 -11 20 -14 45 -4 25 -11 45 -16 45 -6 0 -13 18 -16 40 -4 22 -10 40
-14 40 -4 0 -10 18 -14 40 -3 22 -10 40 -16 40 -5 0 -12 20 -16 45 -3 25 -10
45 -15 45 -4 0 -11 20 -15 45 -3 25 -10 45 -15 45 -5 0 -12 18 -15 40 -4 22
-10 40 -15 40 -5 0 -9 9 -9 20 0 11 -6 20 -14 20 -10 0 -17 -16 -22 -45z m36
-85 c0 -11 4 -20 9 -20 5 0 12 -20 15 -45 4 -25 11 -45 16 -45 5 0 12 -17 16
-37 4 -21 10 -40 14 -43 4 -3 11 -24 15 -47 l7 -43 -106 0 c-99 0 -106 1 -106
20 0 11 4 20 9 20 5 0 12 23 16 50 4 28 11 50 15 50 5 0 12 16 16 35 3 19 10
35 14 35 4 0 11 20 14 45 5 29 12 45 22 45 8 0 14 -9 14 -20z"/>
<path d="M16580 565 c0 -318 2 -365 15 -365 13 0 15 26 15 175 l0 175 145 0
c122 0 145 2 145 15 0 13 -23 15 -145 15 l-145 0 0 160 0 160 145 0 c122 0
145 2 145 15 0 13 -24 15 -160 15 l-160 0 0 -365z"/>
<path d="M17120 565 l0 -365 180 0 c153 0 180 2 180 15 0 13 -25 15 -165 15
l-165 0 0 146 c0 113 3 149 14 160 11 11 48 14 165 14 128 0 151 2 151 15 0
13 -25 15 -165 15 l-165 0 0 160 0 160 165 0 c140 0 165 2 165 15 0 13 -27 15
-180 15 l-180 0 0 -365z"/>
<path d="M1418 588 c18 -19 69 -54 115 -78 99 -52 92 -42 -28 37 -120 79 -125
82 -87 41z"/>
</g>
</svg>
